<?xml version="1.0" encoding="utf-8"?>
<svg xmlns="http://www.w3.org/2000/svg" xmlns:xlink="http://www.w3.org/1999/xlink" width="1024" height="1024">
  <defs>
    <path id="a" d="M0 0h1024v1024H.02z"/>
  </defs>
  <g fill="none" fill-rule="evenodd" transform="translate(1)">
    <mask id="b" fill="#fff">
      <use xlink:href="#a"/>
    </mask>
    <g fill-rule="nonzero" mask="url(#b)">
      <g fill="#1C3FFF">
        <path d="M979.48 616.421c0 21.267-11.438 40.892-29.932 51.393l-106.963 61.621v36.826c0 17.86-9.493 34.268-24.838 43.025L547.6 964.956a73.043 73.043 0 0 1-72.284 0l-268.695-155.69a49.448 49.448 0 0 1-24.818-43.005v-36.826L74.841 667.814A59.882 59.882 0 0 1 44.909 616.4V488.8a59.534 59.534 0 0 1 29.564-51.393l106.962-61.99V322.92c0-16.407 9.125-31.71 23.733-39.383L643.616 50.206c10.946-5.831 24.102 2.189 23.733 14.219v149.491c0 11.294 12.051 18.209 21.892 12.746l128.895-73.999a16.286 16.286 0 0 1 24.45 14.219v208.536l106.962 61.621a59.123 59.123 0 0 1 29.932 51.413v127.97Zm-868.14-24.427v-84.597c0-7.284 4.01-14.219 10.599-17.492l59.864-34.637v189.59l-59.864-34.656a21.584 21.584 0 0 1-10.598-18.208ZM842.566 454.9l59.885 34.636a20.418 20.418 0 0 1 10.577 17.493v84.596c0 7.652-4.01 14.587-10.577 18.209l-59.865 34.657-.02-189.591Zm-231.439-87.154a80.94 80.94 0 0 1 80.325 0l82.492 47.055.737 179.73-75.946 43.372v160.806l-140.557 81.303a93.503 93.503 0 0 1-92.722 0l-141.642-81.303V637.903l-73.388-43.004v-179.75l82.513-47.383a80.94 80.94 0 0 1 80.324 0l98.922 57.244 98.942-57.264Z"/>
        <path d="m631.197 746.928-18.618 10.945c-62.078 36.395-138.947 36.536-201.158.368l-18.25-10.945v-38.647c0-12.398 13.503-20.05 24.101-13.85 58.522 34.33 131.068 34.189 189.456-.369l.388-.368a16.04 16.04 0 0 1 24.081 13.85v39.016ZM356.671 514.332a46.564 46.564 0 0 1 46.73-46.666 46.568 46.568 0 0 1 46.73 46.646 46.544 46.544 0 0 1-46.73 46.687c-25.77-.034-46.662-20.898-46.73-46.667ZM620.988 561a46.548 46.548 0 0 1-46.73-46.667c0-25.88 20.808-46.666 46.73-46.666 25.922 0 46.73 20.786 46.73 46.646-.057 25.777-20.952 46.653-46.73 46.687Z"/>
      </g>
      <path fill="#FFF" d="M111.361 507.417v84.556c0 7.304 3.99 14.219 10.578 18.229l59.864 34.636v-189.57l-59.864 34.637a19.56 19.56 0 0 0-10.598 17.492l.02.02Zm791.089-17.88L842.585 454.9v189.59l59.865-34.636c6.567-3.662 10.577-10.577 10.577-18.229v-84.617a20.418 20.418 0 0 0-10.577-17.492v.02Zm69.726-90.776-73.736-42.33-10.967-6.198V167.598c-.078-33.625-27.342-60.852-60.969-60.885-10.578 0-21.155 2.925-30.28 8.02l-51.128 29.174-32.858 18.965V65.16c0-16.408-6.936-32.448-18.619-43.761a60.603 60.603 0 0 0-42.35-17.124c-9.842 0-19.703 2.557-28.46 7.283L184.36 244.891c-29.1 15.482-47.232 45.805-47.098 78.766v26.596l-10.946 6.2-74.104 42.308A104.257 104.257 0 0 0 0 488.8v127.6c0 37.195 20.07 71.463 52.213 90.06l73.736 42.657 10.946 6.199v12.398a94.519 94.519 0 0 0 47.098 80.566l268.695 155.69a118.127 118.127 0 0 0 58.78 15.672c20.44 0 40.51-5.462 58.412-15.671L840.028 848.28a94.048 94.048 0 0 0 47.098-80.566v-12.398l10.946-6.2 73.736-42.656a104.257 104.257 0 0 0 52.213-90.039V488.8a103.93 103.93 0 0 0-51.845-90.039Zm7.304 217.64a59.123 59.123 0 0 1-29.932 51.413l-106.963 61.621v36.826c0 17.86-9.493 34.268-24.838 43.004L547.6 964.956a73.043 73.043 0 0 1-72.284 0l-268.695-155.69a49.448 49.448 0 0 1-24.818-43.005v-36.826L74.841 667.814A59.882 59.882 0 0 1 44.909 616.4V488.8a59.534 59.534 0 0 1 29.564-51.393l106.962-61.99V322.92c0-16.407 9.125-31.71 23.733-39.383L643.616 50.206c10.946-5.831 24.102 2.189 23.733 14.219v149.491c0 11.294 12.051 18.209 21.892 12.746l128.895-73.999a16.286 16.286 0 0 1 24.45 14.219v208.536l106.962 61.621a59.123 59.123 0 0 1 29.932 51.413v127.949ZM691.43 367.766a80.94 80.94 0 0 0-80.304 0l-98.942 57.244-98.922-57.244a80.94 80.94 0 0 0-80.324 0l-82.493 47.382v179.75l73.368 43.025V798.71l141.642 81.303a93.503 93.503 0 0 0 92.743 0l140.557-81.303V637.903l75.905-43.373-.717-179.73-82.513-47.034ZM356.671 514.332a46.564 46.564 0 0 1 46.73-46.666 46.568 46.568 0 0 1 46.73 46.646 46.544 46.544 0 0 1-46.73 46.687c-25.77-.034-46.662-20.898-46.73-46.667Zm274.526 232.616-18.618 10.925c-62.078 36.395-138.947 36.536-201.158.368l-18.25-10.945v-38.647c0-12.398 13.503-20.05 24.101-13.85 58.522 34.33 131.068 34.189 189.456-.369l.388-.368a16.04 16.04 0 0 1 24.081 13.85v39.036Zm-10.23-185.97a46.546 46.546 0 0 1-46.709-46.646c0-25.88 20.808-46.666 46.73-46.666 25.922 0 46.73 20.786 46.73 46.646-.057 25.777-20.952 46.653-46.73 46.687l-.02-.02Z"/>
    </g>
  </g>
</svg>